<mxfile host="app.diagrams.net" agent="Mozilla/5.0 (Windows NT 10.0; Win64; x64) AppleWebKit/537.36 (KHTML, like Gecko) Chrome/138.0.0.0 Safari/537.36" version="27.2.0">
  <diagram name="Page-1" id="9f46799a-70d6-7492-0946-bef42562c5a5">
    <mxGraphModel dx="2781" dy="714" grid="1" gridSize="10" guides="1" tooltips="1" connect="1" arrows="1" fold="1" page="1" pageScale="1" pageWidth="1100" pageHeight="850" background="none" math="0" shadow="0">
      <root>
        <mxCell id="0" />
        <mxCell id="1" parent="0" />
        <mxCell id="DjKfd2j_hZUigp_SMTxU-70" value="&lt;font style=&quot;font-size: 36px;&quot;&gt;OgTech NurseryLink Internship Project&lt;/font&gt;" style="text;html=1;align=center;verticalAlign=middle;resizable=0;points=[];autosize=1;strokeColor=none;fillColor=none;" parent="1" vertex="1">
          <mxGeometry x="-5" y="30" width="640" height="60" as="geometry" />
        </mxCell>
        <mxCell id="1TDsfzW-2l1kcoBkpX4P-289" style="edgeStyle=orthogonalEdgeStyle;rounded=0;orthogonalLoop=1;jettySize=auto;html=1;" edge="1" parent="1" source="1TDsfzW-2l1kcoBkpX4P-13" target="1TDsfzW-2l1kcoBkpX4P-97">
          <mxGeometry relative="1" as="geometry">
            <Array as="points">
              <mxPoint x="-100" y="715" />
            </Array>
          </mxGeometry>
        </mxCell>
        <mxCell id="1TDsfzW-2l1kcoBkpX4P-13" value="User" style="swimlane;html=1;fontStyle=1;align=center;verticalAlign=top;childLayout=stackLayout;horizontal=1;startSize=26;horizontalStack=0;resizeParent=1;resizeLast=0;collapsible=1;marginBottom=0;swimlaneFillColor=#ffffff;rounded=0;shadow=0;comic=0;labelBackgroundColor=none;strokeWidth=1;fillColor=none;fontFamily=Verdana;fontSize=12" vertex="1" parent="1">
          <mxGeometry x="-240" y="401.75" width="280" height="270" as="geometry" />
        </mxCell>
        <mxCell id="1TDsfzW-2l1kcoBkpX4P-14" value="+ Id: int" style="text;html=1;strokeColor=none;fillColor=none;align=left;verticalAlign=top;spacingLeft=4;spacingRight=4;whiteSpace=wrap;overflow=hidden;rotatable=0;points=[[0,0.5],[1,0.5]];portConstraint=eastwest;" vertex="1" parent="1TDsfzW-2l1kcoBkpX4P-13">
          <mxGeometry y="26" width="280" height="26" as="geometry" />
        </mxCell>
        <mxCell id="1TDsfzW-2l1kcoBkpX4P-15" value="+ UserName: string (Unique)" style="text;html=1;strokeColor=none;fillColor=none;align=left;verticalAlign=top;spacingLeft=4;spacingRight=4;whiteSpace=wrap;overflow=hidden;rotatable=0;points=[[0,0.5],[1,0.5]];portConstraint=eastwest;" vertex="1" parent="1TDsfzW-2l1kcoBkpX4P-13">
          <mxGeometry y="52" width="280" height="26" as="geometry" />
        </mxCell>
        <mxCell id="1TDsfzW-2l1kcoBkpX4P-16" value="+ Full Name: string" style="text;html=1;strokeColor=none;fillColor=none;align=left;verticalAlign=top;spacingLeft=4;spacingRight=4;whiteSpace=wrap;overflow=hidden;rotatable=0;points=[[0,0.5],[1,0.5]];portConstraint=eastwest;" vertex="1" parent="1TDsfzW-2l1kcoBkpX4P-13">
          <mxGeometry y="78" width="280" height="26" as="geometry" />
        </mxCell>
        <mxCell id="1TDsfzW-2l1kcoBkpX4P-17" value="+ Email: string&lt;div&gt;&lt;br&gt;&lt;/div&gt;" style="text;html=1;strokeColor=none;fillColor=none;align=left;verticalAlign=top;spacingLeft=4;spacingRight=4;whiteSpace=wrap;overflow=hidden;rotatable=0;points=[[0,0.5],[1,0.5]];portConstraint=eastwest;" vertex="1" parent="1TDsfzW-2l1kcoBkpX4P-13">
          <mxGeometry y="104" width="280" height="26" as="geometry" />
        </mxCell>
        <mxCell id="1TDsfzW-2l1kcoBkpX4P-18" value="+ Password: string" style="text;html=1;strokeColor=none;fillColor=none;align=left;verticalAlign=top;spacingLeft=4;spacingRight=4;whiteSpace=wrap;overflow=hidden;rotatable=0;points=[[0,0.5],[1,0.5]];portConstraint=eastwest;" vertex="1" parent="1TDsfzW-2l1kcoBkpX4P-13">
          <mxGeometry y="130" width="280" height="26" as="geometry" />
        </mxCell>
        <mxCell id="1TDsfzW-2l1kcoBkpX4P-19" value="+ Phone: string" style="text;html=1;strokeColor=none;fillColor=none;align=left;verticalAlign=top;spacingLeft=4;spacingRight=4;whiteSpace=wrap;overflow=hidden;rotatable=0;points=[[0,0.5],[1,0.5]];portConstraint=eastwest;" vertex="1" parent="1TDsfzW-2l1kcoBkpX4P-13">
          <mxGeometry y="156" width="280" height="26" as="geometry" />
        </mxCell>
        <mxCell id="1TDsfzW-2l1kcoBkpX4P-20" value="+ RoleId: int&amp;nbsp; (FK)" style="text;html=1;strokeColor=none;fillColor=none;align=left;verticalAlign=top;spacingLeft=4;spacingRight=4;whiteSpace=wrap;overflow=hidden;rotatable=0;points=[[0,0.5],[1,0.5]];portConstraint=eastwest;" vertex="1" parent="1TDsfzW-2l1kcoBkpX4P-13">
          <mxGeometry y="182" width="280" height="26" as="geometry" />
        </mxCell>
        <mxCell id="1TDsfzW-2l1kcoBkpX4P-21" value="+ IsActive: bool" style="text;html=1;strokeColor=none;fillColor=none;align=left;verticalAlign=top;spacingLeft=4;spacingRight=4;whiteSpace=wrap;overflow=hidden;rotatable=0;points=[[0,0.5],[1,0.5]];portConstraint=eastwest;" vertex="1" parent="1TDsfzW-2l1kcoBkpX4P-13">
          <mxGeometry y="208" width="280" height="26" as="geometry" />
        </mxCell>
        <mxCell id="1TDsfzW-2l1kcoBkpX4P-22" value="+ CreatedAt: DateTime" style="text;html=1;strokeColor=none;fillColor=none;align=left;verticalAlign=top;spacingLeft=4;spacingRight=4;whiteSpace=wrap;overflow=hidden;rotatable=0;points=[[0,0.5],[1,0.5]];portConstraint=eastwest;" vertex="1" parent="1TDsfzW-2l1kcoBkpX4P-13">
          <mxGeometry y="234" width="280" height="26" as="geometry" />
        </mxCell>
        <mxCell id="1TDsfzW-2l1kcoBkpX4P-24" value="Student" style="swimlane;html=1;fontStyle=1;align=center;verticalAlign=top;childLayout=stackLayout;horizontal=1;startSize=26;horizontalStack=0;resizeParent=1;resizeLast=0;collapsible=1;marginBottom=0;swimlaneFillColor=#ffffff;rounded=0;shadow=0;comic=0;labelBackgroundColor=none;strokeWidth=1;fillColor=none;fontFamily=Verdana;fontSize=12" vertex="1" parent="1">
          <mxGeometry x="70" y="220.25" width="160" height="130" as="geometry" />
        </mxCell>
        <mxCell id="1TDsfzW-2l1kcoBkpX4P-26" value="+ StudentCode: Guid" style="text;html=1;strokeColor=none;fillColor=none;align=left;verticalAlign=top;spacingLeft=4;spacingRight=4;whiteSpace=wrap;overflow=hidden;rotatable=0;points=[[0,0.5],[1,0.5]];portConstraint=eastwest;" vertex="1" parent="1TDsfzW-2l1kcoBkpX4P-24">
          <mxGeometry y="26" width="160" height="26" as="geometry" />
        </mxCell>
        <mxCell id="1TDsfzW-2l1kcoBkpX4P-23" value="+ DateOfBirth: Date" style="text;html=1;strokeColor=none;fillColor=none;align=left;verticalAlign=top;spacingLeft=4;spacingRight=4;whiteSpace=wrap;overflow=hidden;rotatable=0;points=[[0,0.5],[1,0.5]];portConstraint=eastwest;" vertex="1" parent="1TDsfzW-2l1kcoBkpX4P-24">
          <mxGeometry y="52" width="160" height="26" as="geometry" />
        </mxCell>
        <mxCell id="1TDsfzW-2l1kcoBkpX4P-27" value="+ ClassId: int&amp;nbsp; &amp;nbsp;(FK)" style="text;html=1;strokeColor=none;fillColor=none;align=left;verticalAlign=top;spacingLeft=4;spacingRight=4;whiteSpace=wrap;overflow=hidden;rotatable=0;points=[[0,0.5],[1,0.5]];portConstraint=eastwest;" vertex="1" parent="1TDsfzW-2l1kcoBkpX4P-24">
          <mxGeometry y="78" width="160" height="26" as="geometry" />
        </mxCell>
        <mxCell id="1TDsfzW-2l1kcoBkpX4P-25" value="+ UserId: int&amp;nbsp; &amp;nbsp;(FK)" style="text;html=1;strokeColor=none;fillColor=none;align=left;verticalAlign=top;spacingLeft=4;spacingRight=4;whiteSpace=wrap;overflow=hidden;rotatable=0;points=[[0,0.5],[1,0.5]];portConstraint=eastwest;" vertex="1" parent="1TDsfzW-2l1kcoBkpX4P-24">
          <mxGeometry y="104" width="160" height="26" as="geometry" />
        </mxCell>
        <mxCell id="1TDsfzW-2l1kcoBkpX4P-120" style="edgeStyle=orthogonalEdgeStyle;rounded=0;orthogonalLoop=1;jettySize=auto;html=1;" edge="1" parent="1" source="1TDsfzW-2l1kcoBkpX4P-30" target="1TDsfzW-2l1kcoBkpX4P-13">
          <mxGeometry relative="1" as="geometry">
            <Array as="points">
              <mxPoint x="160" y="488.75" />
              <mxPoint x="160" y="602.75" />
            </Array>
          </mxGeometry>
        </mxCell>
        <mxCell id="1TDsfzW-2l1kcoBkpX4P-30" value="Class" style="swimlane;html=1;fontStyle=1;align=center;verticalAlign=top;childLayout=stackLayout;horizontal=1;startSize=26;horizontalStack=0;resizeParent=1;resizeLast=0;collapsible=1;marginBottom=0;swimlaneFillColor=#ffffff;rounded=0;shadow=0;comic=0;labelBackgroundColor=none;strokeWidth=1;fillColor=none;fontFamily=Verdana;fontSize=12" vertex="1" parent="1">
          <mxGeometry x="220" y="434.25" width="160" height="109" as="geometry" />
        </mxCell>
        <mxCell id="1TDsfzW-2l1kcoBkpX4P-31" value="+ Id: int" style="text;html=1;strokeColor=none;fillColor=none;align=left;verticalAlign=top;spacingLeft=4;spacingRight=4;whiteSpace=wrap;overflow=hidden;rotatable=0;points=[[0,0.5],[1,0.5]];portConstraint=eastwest;" vertex="1" parent="1TDsfzW-2l1kcoBkpX4P-30">
          <mxGeometry y="26" width="160" height="26" as="geometry" />
        </mxCell>
        <mxCell id="1TDsfzW-2l1kcoBkpX4P-32" value="+ ClassName: string" style="text;html=1;strokeColor=none;fillColor=none;align=left;verticalAlign=top;spacingLeft=4;spacingRight=4;whiteSpace=wrap;overflow=hidden;rotatable=0;points=[[0,0.5],[1,0.5]];portConstraint=eastwest;" vertex="1" parent="1TDsfzW-2l1kcoBkpX4P-30">
          <mxGeometry y="52" width="160" height="26" as="geometry" />
        </mxCell>
        <mxCell id="1TDsfzW-2l1kcoBkpX4P-33" value="+ TeacherId: int&amp;nbsp; (FK)" style="text;html=1;strokeColor=none;fillColor=none;align=left;verticalAlign=top;spacingLeft=4;spacingRight=4;whiteSpace=wrap;overflow=hidden;rotatable=0;points=[[0,0.5],[1,0.5]];portConstraint=eastwest;" vertex="1" parent="1TDsfzW-2l1kcoBkpX4P-30">
          <mxGeometry y="78" width="160" height="26" as="geometry" />
        </mxCell>
        <mxCell id="1TDsfzW-2l1kcoBkpX4P-127" style="edgeStyle=orthogonalEdgeStyle;rounded=0;orthogonalLoop=1;jettySize=auto;html=1;" edge="1" parent="1" source="1TDsfzW-2l1kcoBkpX4P-35" target="1TDsfzW-2l1kcoBkpX4P-24">
          <mxGeometry relative="1" as="geometry" />
        </mxCell>
        <mxCell id="1TDsfzW-2l1kcoBkpX4P-130" style="edgeStyle=orthogonalEdgeStyle;rounded=0;orthogonalLoop=1;jettySize=auto;html=1;" edge="1" parent="1" source="1TDsfzW-2l1kcoBkpX4P-35" target="1TDsfzW-2l1kcoBkpX4P-13">
          <mxGeometry relative="1" as="geometry">
            <Array as="points">
              <mxPoint x="-100" y="352.75" />
              <mxPoint x="-100" y="352.75" />
            </Array>
          </mxGeometry>
        </mxCell>
        <mxCell id="1TDsfzW-2l1kcoBkpX4P-35" value="ParentStudent" style="swimlane;html=1;fontStyle=1;align=center;verticalAlign=top;childLayout=stackLayout;horizontal=1;startSize=26;horizontalStack=0;resizeParent=1;resizeLast=0;collapsible=1;marginBottom=0;swimlaneFillColor=#ffffff;rounded=0;shadow=0;comic=0;labelBackgroundColor=none;strokeWidth=1;fillColor=none;fontFamily=Verdana;fontSize=12" vertex="1" parent="1">
          <mxGeometry x="-190" y="231" width="160" height="108.5" as="geometry" />
        </mxCell>
        <mxCell id="1TDsfzW-2l1kcoBkpX4P-36" value="+ Id: int" style="text;html=1;strokeColor=none;fillColor=none;align=left;verticalAlign=top;spacingLeft=4;spacingRight=4;whiteSpace=wrap;overflow=hidden;rotatable=0;points=[[0,0.5],[1,0.5]];portConstraint=eastwest;" vertex="1" parent="1TDsfzW-2l1kcoBkpX4P-35">
          <mxGeometry y="26" width="160" height="26" as="geometry" />
        </mxCell>
        <mxCell id="1TDsfzW-2l1kcoBkpX4P-37" value="+ ParentId: int&amp;nbsp; (FK)" style="text;html=1;strokeColor=none;fillColor=none;align=left;verticalAlign=top;spacingLeft=4;spacingRight=4;whiteSpace=wrap;overflow=hidden;rotatable=0;points=[[0,0.5],[1,0.5]];portConstraint=eastwest;" vertex="1" parent="1TDsfzW-2l1kcoBkpX4P-35">
          <mxGeometry y="52" width="160" height="26" as="geometry" />
        </mxCell>
        <mxCell id="1TDsfzW-2l1kcoBkpX4P-39" value="+ StudentId; int&amp;nbsp; &amp;nbsp;(FK)" style="text;html=1;strokeColor=none;fillColor=none;align=left;verticalAlign=top;spacingLeft=4;spacingRight=4;whiteSpace=wrap;overflow=hidden;rotatable=0;points=[[0,0.5],[1,0.5]];portConstraint=eastwest;" vertex="1" parent="1TDsfzW-2l1kcoBkpX4P-35">
          <mxGeometry y="78" width="160" height="26" as="geometry" />
        </mxCell>
        <mxCell id="1TDsfzW-2l1kcoBkpX4P-97" value="Role" style="swimlane;html=1;fontStyle=1;align=center;verticalAlign=top;childLayout=stackLayout;horizontal=1;startSize=26;horizontalStack=0;resizeParent=1;resizeLast=0;collapsible=1;marginBottom=0;swimlaneFillColor=#ffffff;rounded=0;shadow=0;comic=0;labelBackgroundColor=none;strokeWidth=1;fillColor=none;fontFamily=Verdana;fontSize=12" vertex="1" parent="1">
          <mxGeometry x="60" y="670" width="160" height="90" as="geometry" />
        </mxCell>
        <mxCell id="1TDsfzW-2l1kcoBkpX4P-98" value="+ Id: int" style="text;html=1;strokeColor=none;fillColor=none;align=left;verticalAlign=top;spacingLeft=4;spacingRight=4;whiteSpace=wrap;overflow=hidden;rotatable=0;points=[[0,0.5],[1,0.5]];portConstraint=eastwest;" vertex="1" parent="1TDsfzW-2l1kcoBkpX4P-97">
          <mxGeometry y="26" width="160" height="26" as="geometry" />
        </mxCell>
        <mxCell id="1TDsfzW-2l1kcoBkpX4P-99" value="+ RoleName : string" style="text;html=1;strokeColor=none;fillColor=none;align=left;verticalAlign=top;spacingLeft=4;spacingRight=4;whiteSpace=wrap;overflow=hidden;rotatable=0;points=[[0,0.5],[1,0.5]];portConstraint=eastwest;" vertex="1" parent="1TDsfzW-2l1kcoBkpX4P-97">
          <mxGeometry y="52" width="160" height="26" as="geometry" />
        </mxCell>
        <mxCell id="1TDsfzW-2l1kcoBkpX4P-115" style="edgeStyle=orthogonalEdgeStyle;rounded=0;orthogonalLoop=1;jettySize=auto;html=1;" edge="1" parent="1" source="1TDsfzW-2l1kcoBkpX4P-24" target="1TDsfzW-2l1kcoBkpX4P-30">
          <mxGeometry relative="1" as="geometry" />
        </mxCell>
        <mxCell id="1TDsfzW-2l1kcoBkpX4P-118" value="m" style="text;html=1;align=center;verticalAlign=middle;resizable=0;points=[];autosize=1;strokeColor=none;fillColor=none;" vertex="1" parent="1">
          <mxGeometry x="120" y="350.25" width="30" height="30" as="geometry" />
        </mxCell>
        <mxCell id="1TDsfzW-2l1kcoBkpX4P-119" value="1" style="text;html=1;align=center;verticalAlign=middle;resizable=0;points=[];autosize=1;strokeColor=none;fillColor=none;" vertex="1" parent="1">
          <mxGeometry x="305" y="410.75" width="30" height="30" as="geometry" />
        </mxCell>
        <mxCell id="1TDsfzW-2l1kcoBkpX4P-121" value="1" style="text;html=1;align=center;verticalAlign=middle;resizable=0;points=[];autosize=1;strokeColor=none;fillColor=none;" vertex="1" parent="1">
          <mxGeometry x="40" y="573" width="30" height="30" as="geometry" />
        </mxCell>
        <mxCell id="1TDsfzW-2l1kcoBkpX4P-122" value="m" style="text;html=1;align=center;verticalAlign=middle;resizable=0;points=[];autosize=1;strokeColor=none;fillColor=none;" vertex="1" parent="1">
          <mxGeometry x="190" y="459.75" width="30" height="30" as="geometry" />
        </mxCell>
        <mxCell id="1TDsfzW-2l1kcoBkpX4P-128" value="m" style="text;html=1;align=center;verticalAlign=middle;resizable=0;points=[];autosize=1;strokeColor=none;fillColor=none;" vertex="1" parent="1">
          <mxGeometry x="45" y="260" width="30" height="30" as="geometry" />
        </mxCell>
        <mxCell id="1TDsfzW-2l1kcoBkpX4P-129" value="m" style="text;html=1;align=center;verticalAlign=middle;resizable=0;points=[];autosize=1;strokeColor=none;fillColor=none;" vertex="1" parent="1">
          <mxGeometry x="-40" y="260" width="30" height="30" as="geometry" />
        </mxCell>
        <mxCell id="1TDsfzW-2l1kcoBkpX4P-131" value="m" style="text;html=1;align=center;verticalAlign=middle;resizable=0;points=[];autosize=1;strokeColor=none;fillColor=none;" vertex="1" parent="1">
          <mxGeometry x="-130" y="380.25" width="30" height="30" as="geometry" />
        </mxCell>
        <mxCell id="1TDsfzW-2l1kcoBkpX4P-132" value="m" style="text;html=1;align=center;verticalAlign=middle;resizable=0;points=[];autosize=1;strokeColor=none;fillColor=none;" vertex="1" parent="1">
          <mxGeometry x="-130" y="339.5" width="30" height="30" as="geometry" />
        </mxCell>
        <mxCell id="1TDsfzW-2l1kcoBkpX4P-169" style="edgeStyle=orthogonalEdgeStyle;rounded=0;orthogonalLoop=1;jettySize=auto;html=1;" edge="1" parent="1" source="1TDsfzW-2l1kcoBkpX4P-133" target="1TDsfzW-2l1kcoBkpX4P-24">
          <mxGeometry relative="1" as="geometry">
            <Array as="points">
              <mxPoint x="440" y="320" />
            </Array>
          </mxGeometry>
        </mxCell>
        <mxCell id="1TDsfzW-2l1kcoBkpX4P-172" style="edgeStyle=orthogonalEdgeStyle;rounded=0;orthogonalLoop=1;jettySize=auto;html=1;" edge="1" parent="1" source="1TDsfzW-2l1kcoBkpX4P-133" target="1TDsfzW-2l1kcoBkpX4P-13">
          <mxGeometry relative="1" as="geometry">
            <Array as="points">
              <mxPoint x="500" y="650" />
            </Array>
          </mxGeometry>
        </mxCell>
        <mxCell id="1TDsfzW-2l1kcoBkpX4P-175" style="edgeStyle=orthogonalEdgeStyle;rounded=0;orthogonalLoop=1;jettySize=auto;html=1;" edge="1" parent="1" source="1TDsfzW-2l1kcoBkpX4P-133" target="1TDsfzW-2l1kcoBkpX4P-166">
          <mxGeometry relative="1" as="geometry" />
        </mxCell>
        <mxCell id="1TDsfzW-2l1kcoBkpX4P-133" value="Activities" style="swimlane;html=1;fontStyle=1;align=center;verticalAlign=top;childLayout=stackLayout;horizontal=1;startSize=26;horizontalStack=0;resizeParent=1;resizeLast=0;collapsible=1;marginBottom=0;swimlaneFillColor=#ffffff;rounded=0;shadow=0;comic=0;labelBackgroundColor=none;strokeWidth=1;fillColor=none;fontFamily=Verdana;fontSize=12" vertex="1" parent="1">
          <mxGeometry x="420" y="391" width="160" height="182" as="geometry" />
        </mxCell>
        <mxCell id="1TDsfzW-2l1kcoBkpX4P-134" value="+ Id: int" style="text;html=1;strokeColor=none;fillColor=none;align=left;verticalAlign=top;spacingLeft=4;spacingRight=4;whiteSpace=wrap;overflow=hidden;rotatable=0;points=[[0,0.5],[1,0.5]];portConstraint=eastwest;" vertex="1" parent="1TDsfzW-2l1kcoBkpX4P-133">
          <mxGeometry y="26" width="160" height="26" as="geometry" />
        </mxCell>
        <mxCell id="1TDsfzW-2l1kcoBkpX4P-135" value="+ Comments: string" style="text;html=1;strokeColor=none;fillColor=none;align=left;verticalAlign=top;spacingLeft=4;spacingRight=4;whiteSpace=wrap;overflow=hidden;rotatable=0;points=[[0,0.5],[1,0.5]];portConstraint=eastwest;" vertex="1" parent="1TDsfzW-2l1kcoBkpX4P-133">
          <mxGeometry y="52" width="160" height="26" as="geometry" />
        </mxCell>
        <mxCell id="1TDsfzW-2l1kcoBkpX4P-136" value="+ TimeStamp: DateTime" style="text;html=1;strokeColor=none;fillColor=none;align=left;verticalAlign=top;spacingLeft=4;spacingRight=4;whiteSpace=wrap;overflow=hidden;rotatable=0;points=[[0,0.5],[1,0.5]];portConstraint=eastwest;" vertex="1" parent="1TDsfzW-2l1kcoBkpX4P-133">
          <mxGeometry y="78" width="160" height="26" as="geometry" />
        </mxCell>
        <mxCell id="1TDsfzW-2l1kcoBkpX4P-137" value="+ TeacherId: int&amp;nbsp; &amp;nbsp;(FK)" style="text;html=1;strokeColor=none;fillColor=none;align=left;verticalAlign=top;spacingLeft=4;spacingRight=4;whiteSpace=wrap;overflow=hidden;rotatable=0;points=[[0,0.5],[1,0.5]];portConstraint=eastwest;" vertex="1" parent="1TDsfzW-2l1kcoBkpX4P-133">
          <mxGeometry y="104" width="160" height="26" as="geometry" />
        </mxCell>
        <mxCell id="1TDsfzW-2l1kcoBkpX4P-138" value="+ StudentId: int&amp;nbsp; &amp;nbsp;(FK)" style="text;html=1;strokeColor=none;fillColor=none;align=left;verticalAlign=top;spacingLeft=4;spacingRight=4;whiteSpace=wrap;overflow=hidden;rotatable=0;points=[[0,0.5],[1,0.5]];portConstraint=eastwest;" vertex="1" parent="1TDsfzW-2l1kcoBkpX4P-133">
          <mxGeometry y="130" width="160" height="26" as="geometry" />
        </mxCell>
        <mxCell id="1TDsfzW-2l1kcoBkpX4P-139" value="+ ActivityTypeId : int&amp;nbsp; &amp;nbsp;(FK)" style="text;html=1;strokeColor=none;fillColor=none;align=left;verticalAlign=top;spacingLeft=4;spacingRight=4;whiteSpace=wrap;overflow=hidden;rotatable=0;points=[[0,0.5],[1,0.5]];portConstraint=eastwest;" vertex="1" parent="1TDsfzW-2l1kcoBkpX4P-133">
          <mxGeometry y="156" width="160" height="26" as="geometry" />
        </mxCell>
        <mxCell id="1TDsfzW-2l1kcoBkpX4P-178" style="edgeStyle=orthogonalEdgeStyle;rounded=0;orthogonalLoop=1;jettySize=auto;html=1;" edge="1" parent="1" source="1TDsfzW-2l1kcoBkpX4P-140" target="1TDsfzW-2l1kcoBkpX4P-133">
          <mxGeometry relative="1" as="geometry">
            <Array as="points">
              <mxPoint x="610" y="516" />
              <mxPoint x="610" y="516" />
            </Array>
          </mxGeometry>
        </mxCell>
        <mxCell id="1TDsfzW-2l1kcoBkpX4P-140" value="Toilet" style="swimlane;html=1;fontStyle=1;align=center;verticalAlign=top;childLayout=stackLayout;horizontal=1;startSize=26;horizontalStack=0;resizeParent=1;resizeLast=0;collapsible=1;marginBottom=0;swimlaneFillColor=#ffffff;rounded=0;shadow=0;comic=0;labelBackgroundColor=none;strokeWidth=1;fillColor=none;fontFamily=Verdana;fontSize=12" vertex="1" parent="1">
          <mxGeometry x="740" y="471" width="160" height="90" as="geometry" />
        </mxCell>
        <mxCell id="1TDsfzW-2l1kcoBkpX4P-141" value="+ VisitType: enum" style="text;html=1;strokeColor=none;fillColor=none;align=left;verticalAlign=top;spacingLeft=4;spacingRight=4;whiteSpace=wrap;overflow=hidden;rotatable=0;points=[[0,0.5],[1,0.5]];portConstraint=eastwest;" vertex="1" parent="1TDsfzW-2l1kcoBkpX4P-140">
          <mxGeometry y="26" width="160" height="26" as="geometry" />
        </mxCell>
        <mxCell id="1TDsfzW-2l1kcoBkpX4P-142" value="+ ActivityId: int&amp;nbsp; &amp;nbsp;(FK)" style="text;html=1;strokeColor=none;fillColor=none;align=left;verticalAlign=top;spacingLeft=4;spacingRight=4;whiteSpace=wrap;overflow=hidden;rotatable=0;points=[[0,0.5],[1,0.5]];portConstraint=eastwest;" vertex="1" parent="1TDsfzW-2l1kcoBkpX4P-140">
          <mxGeometry y="52" width="160" height="26" as="geometry" />
        </mxCell>
        <mxCell id="1TDsfzW-2l1kcoBkpX4P-180" style="edgeStyle=orthogonalEdgeStyle;rounded=0;orthogonalLoop=1;jettySize=auto;html=1;" edge="1" parent="1" source="1TDsfzW-2l1kcoBkpX4P-143" target="1TDsfzW-2l1kcoBkpX4P-133">
          <mxGeometry relative="1" as="geometry">
            <Array as="points">
              <mxPoint x="710" y="631" />
              <mxPoint x="710" y="550" />
            </Array>
          </mxGeometry>
        </mxCell>
        <mxCell id="1TDsfzW-2l1kcoBkpX4P-143" value="Meal" style="swimlane;html=1;fontStyle=1;align=center;verticalAlign=top;childLayout=stackLayout;horizontal=1;startSize=26;horizontalStack=0;resizeParent=1;resizeLast=0;collapsible=1;marginBottom=0;swimlaneFillColor=#ffffff;rounded=0;shadow=0;comic=0;labelBackgroundColor=none;strokeWidth=1;fillColor=none;fontFamily=Verdana;fontSize=12" vertex="1" parent="1">
          <mxGeometry x="740" y="576.13" width="160" height="109" as="geometry" />
        </mxCell>
        <mxCell id="1TDsfzW-2l1kcoBkpX4P-144" value="+ MealType: enum" style="text;html=1;strokeColor=none;fillColor=none;align=left;verticalAlign=top;spacingLeft=4;spacingRight=4;whiteSpace=wrap;overflow=hidden;rotatable=0;points=[[0,0.5],[1,0.5]];portConstraint=eastwest;" vertex="1" parent="1TDsfzW-2l1kcoBkpX4P-143">
          <mxGeometry y="26" width="160" height="26" as="geometry" />
        </mxCell>
        <mxCell id="1TDsfzW-2l1kcoBkpX4P-145" value="+ Status: enum" style="text;html=1;strokeColor=none;fillColor=none;align=left;verticalAlign=top;spacingLeft=4;spacingRight=4;whiteSpace=wrap;overflow=hidden;rotatable=0;points=[[0,0.5],[1,0.5]];portConstraint=eastwest;" vertex="1" parent="1TDsfzW-2l1kcoBkpX4P-143">
          <mxGeometry y="52" width="160" height="26" as="geometry" />
        </mxCell>
        <mxCell id="1TDsfzW-2l1kcoBkpX4P-146" value="+ ActivityId: int&amp;nbsp; &amp;nbsp; (FK)" style="text;html=1;strokeColor=none;fillColor=none;align=left;verticalAlign=top;spacingLeft=4;spacingRight=4;whiteSpace=wrap;overflow=hidden;rotatable=0;points=[[0,0.5],[1,0.5]];portConstraint=eastwest;" vertex="1" parent="1TDsfzW-2l1kcoBkpX4P-143">
          <mxGeometry y="78" width="160" height="26" as="geometry" />
        </mxCell>
        <mxCell id="1TDsfzW-2l1kcoBkpX4P-188" style="edgeStyle=orthogonalEdgeStyle;rounded=0;orthogonalLoop=1;jettySize=auto;html=1;" edge="1" parent="1" source="1TDsfzW-2l1kcoBkpX4P-147" target="1TDsfzW-2l1kcoBkpX4P-13">
          <mxGeometry relative="1" as="geometry">
            <mxPoint x="820" y="150" as="sourcePoint" />
            <Array as="points">
              <mxPoint x="820" y="110" />
              <mxPoint x="-310" y="110" />
              <mxPoint x="-310" y="560" />
            </Array>
          </mxGeometry>
        </mxCell>
        <mxCell id="1TDsfzW-2l1kcoBkpX4P-147" value="SupplyRequest" style="swimlane;html=1;fontStyle=1;align=center;verticalAlign=top;childLayout=stackLayout;horizontal=1;startSize=26;horizontalStack=0;resizeParent=1;resizeLast=0;collapsible=1;marginBottom=0;swimlaneFillColor=#ffffff;rounded=0;shadow=0;comic=0;labelBackgroundColor=none;strokeWidth=1;fillColor=none;fontFamily=Verdana;fontSize=12" vertex="1" parent="1">
          <mxGeometry x="740" y="141.25" width="160" height="209" as="geometry" />
        </mxCell>
        <mxCell id="1TDsfzW-2l1kcoBkpX4P-148" value="+ Id: int" style="text;html=1;strokeColor=none;fillColor=none;align=left;verticalAlign=top;spacingLeft=4;spacingRight=4;whiteSpace=wrap;overflow=hidden;rotatable=0;points=[[0,0.5],[1,0.5]];portConstraint=eastwest;" vertex="1" parent="1TDsfzW-2l1kcoBkpX4P-147">
          <mxGeometry y="26" width="160" height="26" as="geometry" />
        </mxCell>
        <mxCell id="1TDsfzW-2l1kcoBkpX4P-149" value="+ StudentId: int" style="text;html=1;strokeColor=none;fillColor=none;align=left;verticalAlign=top;spacingLeft=4;spacingRight=4;whiteSpace=wrap;overflow=hidden;rotatable=0;points=[[0,0.5],[1,0.5]];portConstraint=eastwest;" vertex="1" parent="1TDsfzW-2l1kcoBkpX4P-147">
          <mxGeometry y="52" width="160" height="26" as="geometry" />
        </mxCell>
        <mxCell id="1TDsfzW-2l1kcoBkpX4P-150" value="+ TeacherId: int" style="text;html=1;strokeColor=none;fillColor=none;align=left;verticalAlign=top;spacingLeft=4;spacingRight=4;whiteSpace=wrap;overflow=hidden;rotatable=0;points=[[0,0.5],[1,0.5]];portConstraint=eastwest;" vertex="1" parent="1TDsfzW-2l1kcoBkpX4P-147">
          <mxGeometry y="78" width="160" height="26" as="geometry" />
        </mxCell>
        <mxCell id="1TDsfzW-2l1kcoBkpX4P-151" value="+ Message: string" style="text;html=1;strokeColor=none;fillColor=none;align=left;verticalAlign=top;spacingLeft=4;spacingRight=4;whiteSpace=wrap;overflow=hidden;rotatable=0;points=[[0,0.5],[1,0.5]];portConstraint=eastwest;" vertex="1" parent="1TDsfzW-2l1kcoBkpX4P-147">
          <mxGeometry y="104" width="160" height="26" as="geometry" />
        </mxCell>
        <mxCell id="1TDsfzW-2l1kcoBkpX4P-152" value="+ Item: string" style="text;html=1;strokeColor=none;fillColor=none;align=left;verticalAlign=top;spacingLeft=4;spacingRight=4;whiteSpace=wrap;overflow=hidden;rotatable=0;points=[[0,0.5],[1,0.5]];portConstraint=eastwest;" vertex="1" parent="1TDsfzW-2l1kcoBkpX4P-147">
          <mxGeometry y="130" width="160" height="26" as="geometry" />
        </mxCell>
        <mxCell id="1TDsfzW-2l1kcoBkpX4P-153" value="+ Status: enum" style="text;html=1;strokeColor=none;fillColor=none;align=left;verticalAlign=top;spacingLeft=4;spacingRight=4;whiteSpace=wrap;overflow=hidden;rotatable=0;points=[[0,0.5],[1,0.5]];portConstraint=eastwest;" vertex="1" parent="1TDsfzW-2l1kcoBkpX4P-147">
          <mxGeometry y="156" width="160" height="26" as="geometry" />
        </mxCell>
        <mxCell id="1TDsfzW-2l1kcoBkpX4P-154" value="+ CreatedAt: DateTime" style="text;html=1;strokeColor=none;fillColor=none;align=left;verticalAlign=top;spacingLeft=4;spacingRight=4;whiteSpace=wrap;overflow=hidden;rotatable=0;points=[[0,0.5],[1,0.5]];portConstraint=eastwest;" vertex="1" parent="1TDsfzW-2l1kcoBkpX4P-147">
          <mxGeometry y="182" width="160" height="26" as="geometry" />
        </mxCell>
        <mxCell id="1TDsfzW-2l1kcoBkpX4P-182" style="edgeStyle=orthogonalEdgeStyle;rounded=0;orthogonalLoop=1;jettySize=auto;html=1;" edge="1" parent="1" source="1TDsfzW-2l1kcoBkpX4P-155" target="1TDsfzW-2l1kcoBkpX4P-133">
          <mxGeometry relative="1" as="geometry">
            <Array as="points">
              <mxPoint x="610" y="604" />
              <mxPoint x="540" y="604" />
            </Array>
          </mxGeometry>
        </mxCell>
        <mxCell id="1TDsfzW-2l1kcoBkpX4P-155" value="Temperature" style="swimlane;html=1;fontStyle=1;align=center;verticalAlign=top;childLayout=stackLayout;horizontal=1;startSize=26;horizontalStack=0;resizeParent=1;resizeLast=0;collapsible=1;marginBottom=0;swimlaneFillColor=#ffffff;rounded=0;shadow=0;comic=0;labelBackgroundColor=none;strokeWidth=1;fillColor=none;fontFamily=Verdana;fontSize=12" vertex="1" parent="1">
          <mxGeometry x="520" y="635" width="180" height="88.5" as="geometry" />
        </mxCell>
        <mxCell id="1TDsfzW-2l1kcoBkpX4P-156" value="+ TemperatureReading: double" style="text;html=1;strokeColor=none;fillColor=none;align=left;verticalAlign=top;spacingLeft=4;spacingRight=4;whiteSpace=wrap;overflow=hidden;rotatable=0;points=[[0,0.5],[1,0.5]];portConstraint=eastwest;" vertex="1" parent="1TDsfzW-2l1kcoBkpX4P-155">
          <mxGeometry y="26" width="180" height="26" as="geometry" />
        </mxCell>
        <mxCell id="1TDsfzW-2l1kcoBkpX4P-157" value="+ ActivityId: int&amp;nbsp; &amp;nbsp;(FK)" style="text;html=1;strokeColor=none;fillColor=none;align=left;verticalAlign=top;spacingLeft=4;spacingRight=4;whiteSpace=wrap;overflow=hidden;rotatable=0;points=[[0,0.5],[1,0.5]];portConstraint=eastwest;" vertex="1" parent="1TDsfzW-2l1kcoBkpX4P-155">
          <mxGeometry y="52" width="180" height="26" as="geometry" />
        </mxCell>
        <mxCell id="1TDsfzW-2l1kcoBkpX4P-184" style="edgeStyle=orthogonalEdgeStyle;rounded=0;orthogonalLoop=1;jettySize=auto;html=1;" edge="1" parent="1" source="1TDsfzW-2l1kcoBkpX4P-158" target="1TDsfzW-2l1kcoBkpX4P-13">
          <mxGeometry relative="1" as="geometry">
            <Array as="points">
              <mxPoint x="-280" y="200" />
              <mxPoint x="-280" y="510" />
            </Array>
          </mxGeometry>
        </mxCell>
        <mxCell id="1TDsfzW-2l1kcoBkpX4P-186" style="edgeStyle=orthogonalEdgeStyle;rounded=0;orthogonalLoop=1;jettySize=auto;html=1;" edge="1" parent="1" source="1TDsfzW-2l1kcoBkpX4P-158" target="1TDsfzW-2l1kcoBkpX4P-24">
          <mxGeometry relative="1" as="geometry">
            <Array as="points">
              <mxPoint x="310" y="230" />
              <mxPoint x="310" y="230" />
            </Array>
          </mxGeometry>
        </mxCell>
        <mxCell id="1TDsfzW-2l1kcoBkpX4P-158" value="Notification" style="swimlane;html=1;fontStyle=1;align=center;verticalAlign=top;childLayout=stackLayout;horizontal=1;startSize=26;horizontalStack=0;resizeParent=1;resizeLast=0;collapsible=1;marginBottom=0;swimlaneFillColor=#ffffff;rounded=0;shadow=0;comic=0;labelBackgroundColor=none;strokeWidth=1;fillColor=none;fontFamily=Verdana;fontSize=12" vertex="1" parent="1">
          <mxGeometry x="540" y="120" width="160" height="208" as="geometry" />
        </mxCell>
        <mxCell id="1TDsfzW-2l1kcoBkpX4P-159" value="+ Id : int" style="text;html=1;strokeColor=none;fillColor=none;align=left;verticalAlign=top;spacingLeft=4;spacingRight=4;whiteSpace=wrap;overflow=hidden;rotatable=0;points=[[0,0.5],[1,0.5]];portConstraint=eastwest;" vertex="1" parent="1TDsfzW-2l1kcoBkpX4P-158">
          <mxGeometry y="26" width="160" height="26" as="geometry" />
        </mxCell>
        <mxCell id="1TDsfzW-2l1kcoBkpX4P-160" value="+ StudentId: int&amp;nbsp; &amp;nbsp;(FK)" style="text;html=1;strokeColor=none;fillColor=none;align=left;verticalAlign=top;spacingLeft=4;spacingRight=4;whiteSpace=wrap;overflow=hidden;rotatable=0;points=[[0,0.5],[1,0.5]];portConstraint=eastwest;" vertex="1" parent="1TDsfzW-2l1kcoBkpX4P-158">
          <mxGeometry y="52" width="160" height="26" as="geometry" />
        </mxCell>
        <mxCell id="1TDsfzW-2l1kcoBkpX4P-161" value="+ ParentId: int&amp;nbsp; &amp;nbsp; (FK)" style="text;html=1;strokeColor=none;fillColor=none;align=left;verticalAlign=top;spacingLeft=4;spacingRight=4;whiteSpace=wrap;overflow=hidden;rotatable=0;points=[[0,0.5],[1,0.5]];portConstraint=eastwest;" vertex="1" parent="1TDsfzW-2l1kcoBkpX4P-158">
          <mxGeometry y="78" width="160" height="26" as="geometry" />
        </mxCell>
        <mxCell id="1TDsfzW-2l1kcoBkpX4P-162" value="+ Message: string" style="text;html=1;strokeColor=none;fillColor=none;align=left;verticalAlign=top;spacingLeft=4;spacingRight=4;whiteSpace=wrap;overflow=hidden;rotatable=0;points=[[0,0.5],[1,0.5]];portConstraint=eastwest;" vertex="1" parent="1TDsfzW-2l1kcoBkpX4P-158">
          <mxGeometry y="104" width="160" height="26" as="geometry" />
        </mxCell>
        <mxCell id="1TDsfzW-2l1kcoBkpX4P-163" value="+ Type : enum" style="text;html=1;strokeColor=none;fillColor=none;align=left;verticalAlign=top;spacingLeft=4;spacingRight=4;whiteSpace=wrap;overflow=hidden;rotatable=0;points=[[0,0.5],[1,0.5]];portConstraint=eastwest;" vertex="1" parent="1TDsfzW-2l1kcoBkpX4P-158">
          <mxGeometry y="130" width="160" height="26" as="geometry" />
        </mxCell>
        <mxCell id="1TDsfzW-2l1kcoBkpX4P-164" value="+ IsRead: bool" style="text;html=1;strokeColor=none;fillColor=none;align=left;verticalAlign=top;spacingLeft=4;spacingRight=4;whiteSpace=wrap;overflow=hidden;rotatable=0;points=[[0,0.5],[1,0.5]];portConstraint=eastwest;" vertex="1" parent="1TDsfzW-2l1kcoBkpX4P-158">
          <mxGeometry y="156" width="160" height="26" as="geometry" />
        </mxCell>
        <mxCell id="1TDsfzW-2l1kcoBkpX4P-165" value="+ CreatedAt: DateTime" style="text;html=1;strokeColor=none;fillColor=none;align=left;verticalAlign=top;spacingLeft=4;spacingRight=4;whiteSpace=wrap;overflow=hidden;rotatable=0;points=[[0,0.5],[1,0.5]];portConstraint=eastwest;" vertex="1" parent="1TDsfzW-2l1kcoBkpX4P-158">
          <mxGeometry y="182" width="160" height="26" as="geometry" />
        </mxCell>
        <mxCell id="1TDsfzW-2l1kcoBkpX4P-166" value="ActivityType" style="swimlane;html=1;fontStyle=1;align=center;verticalAlign=top;childLayout=stackLayout;horizontal=1;startSize=26;horizontalStack=0;resizeParent=1;resizeLast=0;collapsible=1;marginBottom=0;swimlaneFillColor=#ffffff;rounded=0;shadow=0;comic=0;labelBackgroundColor=none;strokeWidth=1;fillColor=none;fontFamily=Verdana;fontSize=12" vertex="1" parent="1">
          <mxGeometry x="740" y="370.75" width="160" height="89" as="geometry" />
        </mxCell>
        <mxCell id="1TDsfzW-2l1kcoBkpX4P-167" value="+ Id: int" style="text;html=1;strokeColor=none;fillColor=none;align=left;verticalAlign=top;spacingLeft=4;spacingRight=4;whiteSpace=wrap;overflow=hidden;rotatable=0;points=[[0,0.5],[1,0.5]];portConstraint=eastwest;" vertex="1" parent="1TDsfzW-2l1kcoBkpX4P-166">
          <mxGeometry y="26" width="160" height="26" as="geometry" />
        </mxCell>
        <mxCell id="1TDsfzW-2l1kcoBkpX4P-168" value="+ Name : string" style="text;html=1;strokeColor=none;fillColor=none;align=left;verticalAlign=top;spacingLeft=4;spacingRight=4;whiteSpace=wrap;overflow=hidden;rotatable=0;points=[[0,0.5],[1,0.5]];portConstraint=eastwest;" vertex="1" parent="1TDsfzW-2l1kcoBkpX4P-166">
          <mxGeometry y="52" width="160" height="26" as="geometry" />
        </mxCell>
        <mxCell id="1TDsfzW-2l1kcoBkpX4P-190" style="edgeStyle=orthogonalEdgeStyle;rounded=0;orthogonalLoop=1;jettySize=auto;html=1;" edge="1" parent="1" source="1TDsfzW-2l1kcoBkpX4P-147" target="1TDsfzW-2l1kcoBkpX4P-24">
          <mxGeometry relative="1" as="geometry">
            <Array as="points">
              <mxPoint x="485" y="350" />
              <mxPoint x="485" y="285" />
            </Array>
          </mxGeometry>
        </mxCell>
        <mxCell id="1TDsfzW-2l1kcoBkpX4P-290" value="1" style="text;html=1;align=center;verticalAlign=middle;resizable=0;points=[];autosize=1;strokeColor=none;fillColor=none;" vertex="1" parent="1">
          <mxGeometry x="30" y="685.13" width="30" height="30" as="geometry" />
        </mxCell>
        <mxCell id="1TDsfzW-2l1kcoBkpX4P-291" value="m" style="text;html=1;align=center;verticalAlign=middle;resizable=0;points=[];autosize=1;strokeColor=none;fillColor=none;" vertex="1" parent="1">
          <mxGeometry x="-130" y="664.25" width="30" height="30" as="geometry" />
        </mxCell>
        <mxCell id="1TDsfzW-2l1kcoBkpX4P-293" value="1" style="text;html=1;align=center;verticalAlign=middle;resizable=0;points=[];autosize=1;strokeColor=none;fillColor=none;" vertex="1" parent="1">
          <mxGeometry x="230" y="290" width="30" height="30" as="geometry" />
        </mxCell>
        <mxCell id="1TDsfzW-2l1kcoBkpX4P-294" value="m" style="text;html=1;align=center;verticalAlign=middle;resizable=0;points=[];autosize=1;strokeColor=none;fillColor=none;" vertex="1" parent="1">
          <mxGeometry x="440" y="361" width="30" height="30" as="geometry" />
        </mxCell>
        <mxCell id="1TDsfzW-2l1kcoBkpX4P-295" value="1" style="text;html=1;align=center;verticalAlign=middle;resizable=0;points=[];autosize=1;strokeColor=none;fillColor=none;" vertex="1" parent="1">
          <mxGeometry x="45" y="618" width="30" height="30" as="geometry" />
        </mxCell>
        <mxCell id="1TDsfzW-2l1kcoBkpX4P-296" value="m" style="text;html=1;align=center;verticalAlign=middle;resizable=0;points=[];autosize=1;strokeColor=none;fillColor=none;" vertex="1" parent="1">
          <mxGeometry x="470" y="573" width="30" height="30" as="geometry" />
        </mxCell>
        <mxCell id="1TDsfzW-2l1kcoBkpX4P-297" value="1" style="text;html=1;align=center;verticalAlign=middle;resizable=0;points=[];autosize=1;strokeColor=none;fillColor=none;" vertex="1" parent="1">
          <mxGeometry x="605" y="605" width="30" height="30" as="geometry" />
        </mxCell>
        <mxCell id="1TDsfzW-2l1kcoBkpX4P-298" value="m" style="text;html=1;align=center;verticalAlign=middle;resizable=0;points=[];autosize=1;strokeColor=none;fillColor=none;" vertex="1" parent="1">
          <mxGeometry x="540" y="573" width="30" height="30" as="geometry" />
        </mxCell>
        <mxCell id="1TDsfzW-2l1kcoBkpX4P-299" value="1" style="text;html=1;align=center;verticalAlign=middle;resizable=0;points=[];autosize=1;strokeColor=none;fillColor=none;" vertex="1" parent="1">
          <mxGeometry x="710" y="603" width="30" height="30" as="geometry" />
        </mxCell>
        <mxCell id="1TDsfzW-2l1kcoBkpX4P-300" value="m" style="text;html=1;align=center;verticalAlign=middle;resizable=0;points=[];autosize=1;strokeColor=none;fillColor=none;" vertex="1" parent="1">
          <mxGeometry x="580" y="521.75" width="30" height="30" as="geometry" />
        </mxCell>
        <mxCell id="1TDsfzW-2l1kcoBkpX4P-301" value="1" style="text;html=1;align=center;verticalAlign=middle;resizable=0;points=[];autosize=1;strokeColor=none;fillColor=none;" vertex="1" parent="1">
          <mxGeometry x="705" y="478" width="30" height="30" as="geometry" />
        </mxCell>
        <mxCell id="1TDsfzW-2l1kcoBkpX4P-302" value="m" style="text;html=1;align=center;verticalAlign=middle;resizable=0;points=[];autosize=1;strokeColor=none;fillColor=none;" vertex="1" parent="1">
          <mxGeometry x="580" y="489.75" width="30" height="30" as="geometry" />
        </mxCell>
        <mxCell id="1TDsfzW-2l1kcoBkpX4P-303" value="1" style="text;html=1;align=center;verticalAlign=middle;resizable=0;points=[];autosize=1;strokeColor=none;fillColor=none;" vertex="1" parent="1">
          <mxGeometry x="580" y="448" width="30" height="30" as="geometry" />
        </mxCell>
        <mxCell id="1TDsfzW-2l1kcoBkpX4P-304" value="m" style="text;html=1;align=center;verticalAlign=middle;resizable=0;points=[];autosize=1;strokeColor=none;fillColor=none;" vertex="1" parent="1">
          <mxGeometry x="705" y="380.75" width="30" height="30" as="geometry" />
        </mxCell>
        <mxCell id="1TDsfzW-2l1kcoBkpX4P-306" value="1" style="text;html=1;align=center;verticalAlign=middle;resizable=0;points=[];autosize=1;strokeColor=none;fillColor=none;" vertex="1" parent="1">
          <mxGeometry x="230" y="260" width="30" height="30" as="geometry" />
        </mxCell>
        <mxCell id="1TDsfzW-2l1kcoBkpX4P-307" value="m" style="text;html=1;align=center;verticalAlign=middle;resizable=0;points=[];autosize=1;strokeColor=none;fillColor=none;" vertex="1" parent="1">
          <mxGeometry x="705" y="320" width="30" height="30" as="geometry" />
        </mxCell>
        <mxCell id="1TDsfzW-2l1kcoBkpX4P-308" value="m" style="text;html=1;align=center;verticalAlign=middle;resizable=0;points=[];autosize=1;strokeColor=none;fillColor=none;" vertex="1" parent="1">
          <mxGeometry x="510" y="230.75" width="30" height="30" as="geometry" />
        </mxCell>
        <mxCell id="1TDsfzW-2l1kcoBkpX4P-309" value="1" style="text;html=1;align=center;verticalAlign=middle;resizable=0;points=[];autosize=1;strokeColor=none;fillColor=none;" vertex="1" parent="1">
          <mxGeometry x="230" y="228" width="30" height="30" as="geometry" />
        </mxCell>
        <mxCell id="1TDsfzW-2l1kcoBkpX4P-310" value="m" style="text;html=1;align=center;verticalAlign=middle;resizable=0;points=[];autosize=1;strokeColor=none;fillColor=none;" vertex="1" parent="1">
          <mxGeometry x="505" y="158" width="30" height="30" as="geometry" />
        </mxCell>
        <mxCell id="1TDsfzW-2l1kcoBkpX4P-311" value="1" style="text;html=1;align=center;verticalAlign=middle;resizable=0;points=[];autosize=1;strokeColor=none;fillColor=none;" vertex="1" parent="1">
          <mxGeometry x="-275" y="468" width="30" height="30" as="geometry" />
        </mxCell>
        <mxCell id="1TDsfzW-2l1kcoBkpX4P-312" value="1" style="text;html=1;align=center;verticalAlign=middle;resizable=0;points=[];autosize=1;strokeColor=none;fillColor=none;" vertex="1" parent="1">
          <mxGeometry x="-280" y="531" width="30" height="30" as="geometry" />
        </mxCell>
        <mxCell id="1TDsfzW-2l1kcoBkpX4P-313" value="m" style="text;html=1;align=center;verticalAlign=middle;resizable=0;points=[];autosize=1;strokeColor=none;fillColor=none;" vertex="1" parent="1">
          <mxGeometry x="830" y="111.25" width="30" height="30" as="geometry" />
        </mxCell>
      </root>
    </mxGraphModel>
  </diagram>
</mxfile>
